<svg xmlns="http://www.w3.org/2000/svg" xmlns:xlink="http://www.w3.org/1999/xlink" width="280" zoomAndPan="magnify" viewBox="0 0 210 209.999996" height="280" preserveAspectRatio="xMidYMid meet" version="1.0"><defs><g/><clipPath id="c418d3e009"><path d="M 75.617188 2.253906 L 101.636719 2.253906 L 101.636719 28.273438 L 75.617188 28.273438 Z M 75.617188 2.253906 " clip-rule="nonzero"/></clipPath><clipPath id="d6b37cc4d3"><path d="M 88.625 2.253906 C 81.441406 2.253906 75.617188 8.078125 75.617188 15.265625 C 75.617188 22.449219 81.441406 28.273438 88.625 28.273438 C 95.8125 28.273438 101.636719 22.449219 101.636719 15.265625 C 101.636719 8.078125 95.8125 2.253906 88.625 2.253906 Z M 88.625 2.253906 " clip-rule="nonzero"/></clipPath></defs><g fill="#ff4365" fill-opacity="1"><g transform="translate(64.652958, 165.234306)"><g><path d="M 38.453125 -44.5 L 38.453125 0 L 10.984375 0 L 10.984375 -124.53125 L 57.6875 -124.53125 C 64.40625 -124.53125 70.660156 -122.851562 76.453125 -119.5 C 82.253906 -116.144531 86.925781 -111.472656 90.46875 -105.484375 C 94.007812 -99.503906 95.78125 -92.546875 95.78125 -84.609375 C 95.78125 -77.648438 94.5 -71.484375 91.9375 -66.109375 C 89.375 -60.742188 85.953125 -56.347656 81.671875 -52.921875 C 77.398438 -49.503906 72.640625 -47.125 67.390625 -45.78125 L 103.109375 0 L 68.3125 0 L 38.640625 -44.5 Z M 53.109375 -102.921875 L 38.453125 -102.921875 L 38.453125 -66.109375 L 53.109375 -66.109375 C 57.140625 -66.109375 60.894531 -67.695312 64.375 -70.875 C 67.851562 -74.050781 69.59375 -78.628906 69.59375 -84.609375 C 69.59375 -90.347656 67.851562 -94.832031 64.375 -98.0625 C 60.894531 -101.300781 57.140625 -102.921875 53.109375 -102.921875 Z M 53.109375 -102.921875 "/></g></g></g><g clip-path="url(#c418d3e009)"><g clip-path="url(#d6b37cc4d3)"><path fill="#ff4365" d="M 75.617188 2.253906 L 101.636719 2.253906 L 101.636719 28.273438 L 75.617188 28.273438 Z M 75.617188 2.253906 " fill-opacity="1" fill-rule="nonzero"/></g></g><g fill="#ff4365" fill-opacity="1"><g transform="translate(33.907209, 207.097011)"><g><path d="M 21.328125 -24.640625 C 27.953125 -24.640625 32.675781 -25.773438 35.5 -28.046875 C 38.320312 -30.316406 40.066406 -33.320312 40.734375 -37.0625 C 41.410156 -40.800781 41.75 -44.816406 41.75 -49.109375 L 41.75 -125.0625 L 69.34375 -125.0625 L 69.34375 -46.90625 C 69.34375 -35.007812 67.410156 -25.503906 63.546875 -18.390625 C 59.679688 -11.273438 54.191406 -6.125 47.078125 -2.9375 C 39.972656 0.25 31.390625 1.84375 21.328125 1.84375 C 18.140625 1.84375 15.070312 1.65625 12.125 1.28125 C 9.1875 0.914062 6.367188 0.425781 3.671875 -0.1875 L 3.671875 -33.84375 L 4.234375 -33.84375 C 7.421875 -27.707031 13.117188 -24.640625 21.328125 -24.640625 Z M 21.328125 -24.640625 "/></g></g></g></svg>